<?xml version="1.0" encoding="UTF-8" standalone="no"?>
<!-- Created with Inkscape (http://www.inkscape.org/) -->

<svg
   version="1.1"
   id="svg69"
   width="4cm"
   height="5cm"
   viewBox="0 0 151.1811 188.97638"
   sodipodi:docname="sylt-final.svg"
   inkscape:version="1.1 (c4e8f9ed74, 2021-05-24)"
   inkscape:export-filename="/home/gustav/Downloads/sylt-300.png"
   inkscape:export-xdpi="269.5444"
   inkscape:export-ydpi="269.5444"
   xmlns:inkscape="http://www.inkscape.org/namespaces/inkscape"
   xmlns:sodipodi="http://sodipodi.sourceforge.net/DTD/sodipodi-0.dtd"
   xmlns="http://www.w3.org/2000/svg"
   xmlns:svg="http://www.w3.org/2000/svg">
  <defs
     id="defs73">
    <marker
       style="overflow:visible"
       id="Arrow1Lstart"
       refX="0"
       refY="0"
       orient="auto"
       inkscape:stockid="Arrow1Lstart"
       inkscape:isstock="true">
      <path
         transform="matrix(0.8,0,0,0.8,10,0)"
         style="fill:context-stroke;fill-rule:evenodd;stroke:context-stroke;stroke-width:1pt"
         d="M 0,0 5,-5 -12.5,0 5,5 Z"
         id="path43151" />
    </marker>
  </defs>
  <sodipodi:namedview
     id="namedview71"
     pagecolor="#505050"
     bordercolor="#eeeeee"
     borderopacity="1"
     inkscape:pageshadow="0"
     inkscape:pageopacity="0"
     inkscape:pagecheckerboard="0"
     showgrid="false"
     inkscape:zoom="5.6568543"
     inkscape:cx="80.698561"
     inkscape:cy="98.641396"
     inkscape:window-width="2556"
     inkscape:window-height="1415"
     inkscape:window-x="0"
     inkscape:window-y="21"
     inkscape:window-maximized="1"
     inkscape:current-layer="g75"
     inkscape:document-units="mm"
     width="55.8806px"
     units="cm" />
  <g
     inkscape:groupmode="layer"
     inkscape:label="Image"
     id="g75">
    <path
       style="fill:#c5c5c5;fill-opacity:1;stroke:#272727;stroke-width:3.4367;stroke-linecap:round;stroke-linejoin:round;stroke-miterlimit:0;stroke-dasharray:none;stroke-dashoffset:0;stroke-opacity:1;paint-order:normal"
       d="m 45.570413,124.33858 c -19.941628,-17.514 -21.983364,-18.82804 -22.706461,-21.32691 -0.591975,-2.04574 -0.312782,-4.437153 1.388497,-6.851096 2.272657,-3.223751 42.527595,-50.933761 46.510852,-53.274334 1.546745,-0.908889 4.624739,-1.77636 6.839998,-1.92774 2.470358,-0.168812 4.429634,-0.832821 5.067069,-1.717272 0.571633,-0.793149 1.49736,-1.473354 2.057191,-1.51161 1.340586,-0.09161 41.347261,34.782496 41.438831,36.122514 0.0388,0.568666 -0.50861,1.585563 -1.21662,2.259751 -0.78953,0.75183 -1.18083,2.78322 -1.01202,5.253578 0.15137,2.215266 -0.28932,5.382651 -0.97932,7.038657 -1.73274,4.158476 -42.274451,50.466752 -46.279902,53.222482 -2.817161,1.93821 -3.960115,2.72241 -6.71079,2.22385 -3.001465,-0.54402 -12.29849,-8.8859 -24.397325,-19.51187 z"
       id="path599-6-1-9-6-9-5-7-9"
       sodipodi:nodetypes="ssssssssssssss" />
    <path
       style="fill:#fe4c4c;fill-opacity:1;stroke-width:1.90927"
       d="m 67.464798,134.3753 c -3.809437,-2.33292 -5.748268,-7.33818 -16.221851,-17.07607 -1.524906,-1.41783 -11.671772,-7.61066 -15.410132,-9.77283 -3.279383,-1.89674 -5.094475,-4.47419 -5.779752,-6.21168 -0.930496,-2.359234 0.226972,-3.995064 2.478461,-5.818378 1.700587,-1.377165 5.70739,-2.670789 9.726668,-2.977604 7.286152,-0.556273 13.627944,1.080465 18.03349,1.020687 15.003933,-0.350122 32.624808,-9.379601 42.742998,-10.82588 9.63763,-0.953972 15.59031,2.740315 12.33212,7.199768 0.10275,1.503751 -35.795539,41.964687 -38.949764,43.979917 -3.366546,2.15092 -6.450279,2.01427 -8.952238,0.48207 z"
       id="path561-7-2-3-2-4-0-6-3"
       sodipodi:nodetypes="sssssscccss" />
    <path
       style="fill:#412525;fill-opacity:1;stroke-width:1.90927"
       d="m 59.523398,112.57195 c -4.663307,-3.16894 -2.940336,-10.17209 2.770671,-11.26173 5.935833,-1.13252 9.597889,4.21428 6.255316,9.13306 -2.116189,3.11414 -6.16925,4.06996 -9.025987,2.12867 z"
       id="path333-5-7-6-6-7-6-5-7"
       sodipodi:nodetypes="ssss" />
    <path
       style="fill:#412525;fill-opacity:1;stroke-width:1.90926"
       d="m 62.583111,122.31442 c -0.71539,-0.64091 -0.907577,-1.36334 -0.551304,-2.07238 0.459163,-0.91397 1.031733,-0.97443 3.570662,-0.37699 3.848183,0.90534 9.151387,0.44656 13.518776,-1.16961 3.606136,-1.3344 5.254731,-1.46191 5.751568,-0.44488 0.850434,1.74094 -2.249916,3.60613 -8.477279,5.09994 -4.290481,1.02922 -12.166633,0.43843 -13.812416,-1.03599 z"
       id="path333-5-7-6-6-7-6-5-7-5"
       sodipodi:nodetypes="sssssss" />
    <ellipse
       style="fill:#ffffff;fill-opacity:0.6731;stroke:none;stroke-width:4.79877;stroke-linecap:round;stroke-linejoin:round;paint-order:stroke fill markers"
       id="ellipse16066-8-1-6-4"
       cx="73.499626"
       cy="62.726585"
       rx="7.7266884"
       ry="5.077549"
       transform="rotate(-3.9092352)" />
    <path
       style="fill:#412525;fill-opacity:1;stroke-width:1.90927"
       d="m 83.145937,110.7517 c -3.498751,-0.61123 -4.929744,-3.44947 -3.493385,-6.92877 1.536029,-3.72078 5.869194,-4.664392 8.715116,-1.89778 3.658881,3.55685 0.0015,9.73924 -5.221717,8.8267 z"
       id="path45314"
       sodipodi:nodetypes="sssss" />
  </g>
</svg>
